<svg width="20" height="20" viewBox="0 0 20 20" fill="none" xmlns="http://www.w3.org/2000/svg">
<path fill-rule="evenodd" clip-rule="evenodd" d="M3.75506 8.91521L3.46859 8.59217C2.9926 8.05542 2.91349 7.2743 3.2722 6.65301L3.73756 5.84693C4.09624 5.22566 4.81224 4.90361 5.51506 5.04742L5.93812 5.13399C6.32976 5.21412 6.73719 5.148 7.08339 4.94812V4.94812C7.42958 4.74824 7.69056 4.42845 7.81697 4.04922L7.95351 3.63961C8.18037 2.95904 8.81727 2.5 9.53465 2.5H10.4655C11.1829 2.5 11.8198 2.95904 12.0466 3.63961L12.1832 4.04922C12.3096 4.42845 12.5705 4.74823 12.9167 4.94811V4.94811C13.2629 5.148 13.6704 5.21412 14.062 5.13398L14.4851 5.04742C15.1879 4.9036 15.9039 5.22565 16.2626 5.84693L16.728 6.65303C17.0867 7.27431 17.0076 8.05544 16.5316 8.59219L16.2451 8.91522C15.9799 9.21432 15.8334 9.60023 15.8334 10V10C15.8334 10.3998 15.9799 10.7857 16.2451 11.0848L16.5316 11.4078C17.0076 11.9446 17.0867 12.7257 16.728 13.347L16.2625 14.1531C15.9039 14.7744 15.1879 15.0964 14.485 14.9526L14.0618 14.866C13.6702 14.7859 13.2629 14.852 12.9167 15.0518V15.0518C12.5705 15.2517 12.3095 15.5715 12.1831 15.9507L12.0466 16.3604C11.8197 17.041 11.1828 17.5 10.4654 17.5H9.53466C8.81728 17.5 8.18038 17.0409 7.95352 16.3604L7.81696 15.9507C7.69056 15.5715 7.42958 15.2517 7.08339 15.0518V15.0518C6.73723 14.852 6.32986 14.7859 5.93826 14.866L5.51506 14.9526C4.81224 15.0964 4.09624 14.7743 3.73756 14.1531L3.27215 13.347C2.91344 12.7257 2.99255 11.9446 3.46854 11.4078L3.75501 11.0848C4.02024 10.7857 4.16671 10.3998 4.16672 10V10C4.16673 9.60024 4.02028 9.21432 3.75506 8.91521Z" stroke="#746E7C" stroke-width="1.5" stroke-linecap="round" stroke-linejoin="round"/>
<circle cx="10" cy="10" r="2.5" stroke="#746E7C" stroke-width="1.5" stroke-linecap="round" stroke-linejoin="round"/>
</svg>
